# xmcd CD database file
#
# Track frame offsets:
#	150
#	14838
#	16910
#	34074
#	37266
#	53640
#	66295
#	68832
#	88948
#	112377
#	137112
#	147529
#	167340
#	180310
#	195474
#	213621
#	224030
#	238068
#	240117
#	263723
#	287241
#	289881
#	316233
#	330311
#	333882
#
# Disc length: 4551 seconds
#
# Revision: 1
# Processed by: cddbd v1.5.2PL0 Copyright (c) Steve Scherf et al.
# Submitted via: CDex 1.51
#
DISCID=8411c519
DTITLE=Bun B And The Middlefingaz - Legends
DYEAR=2005
DGENRE=Rap
TTITLE0=Bun B - Bun B Speaks [chopped and screwed]
TTITLE1=Bun B And The Middlefingaz - Texas (DJ Drama intro) [chopped and screwed]
TTITLE2=Bun B And The Middlefingaz - Texas [chopped and screwed]
TTITLE3=Bun B - Bun B Speaks #2 [chopped and screwed]
TTITLE4=Bun B - Free Pimp C [chopped and screwed]
TTITLE5=Bun B and Graph - Kiss Of Death [freestyle] [chopped and screwed]
TTITLE6=Killa Kyleon - UGK Story [chopped and screwed]
TTITLE7=Stat Quo and Bun B - U Ain't Kno [chopped and screwed]
TTITLE8=Bun B And The Middlefingaz - Don't Make Me [freestyle] [chopped and screwed]
TTITLE9=T.I., Slim Thug and Bun B - 3 Kings [chopped and screwed]
TTITLE10=Bun B And The Middlefingaz - H-Town [chopped and screwed]
TTITLE11=Young Jeezy and Bun B - Over Here [chopped and screwed]
TTITLE12=Juvenile and Bun B - Slo Motion [remix] [chopped and screwed]
TTITLE13=T.I. and Bun B - Is That Your Chick [chopped and screwed]
TTITLE14=Slim Thug, Bun B and Cory Mo - It Ain't Me [chopped and screwed]
TTITLE15=Bun B, Paul Wall and The Middlefingaz - On Fire [freestyle] [chopped and screwed]
TTITLE16=The Middlefingaz - freestyle [chopped and screwed]
TTITLE17=Bun B - Bun B Speaks #3 [chopped and screwed]
TTITLE18=Boosie, Webbie and UGK - Show Ya Tattoos [chopped and screwed]
TTITLE19=Bun B, Chamillionaire and The Middlefingaz - No More Drama [freestyle] [chopped and screwed]
TTITLE20=Bun B - Bun B Speaks #4 [chopped and screwed]
TTITLE21=Bun B, Mike Jones and The Middlefingaz - Spiders [chopped and screwed]
TTITLE22=Paul Wall and Bun B - Jesus Walks [chopped and screwed]
TTITLE23=Bun B - Outro [chopped and screwed]
TTITLE24=Bun B - The One [freestyle] [chopped and screwed]
EXTD=YEAR: 2005
EXTT0=
EXTT1=
EXTT2=
EXTT3=
EXTT4=
EXTT5=
EXTT6=
EXTT7=
EXTT8=
EXTT9=
EXTT10=
EXTT11=
EXTT12=
EXTT13=
EXTT14=
EXTT15=
EXTT16=
EXTT17=
EXTT18=
EXTT19=
EXTT20=
EXTT21=
EXTT22=
EXTT23=
EXTT24=
PLAYORDER=
